<?xml version="1.0" encoding="UTF-8"?>
<svg xmlns="http://www.w3.org/2000/svg" viewBox="0 0 2400 600" width="2400" height="600">
  
  <g fill="#FFFFFF" transform="translate(45.41,79.68) scale(0.260537)">
    <path d="M1375.22 1684.88 c-45.86 -49.88 -173.41 -214.92 -173.41 -224.29 0 -4.02 39.50 -92.06 42.85 -95.41 1.34 -1 21.42 4.35 44.52 12.39 23.43 8.03 54.57 17.07 69.30 20.42 l27.12 6.36 35.82 87.04 c47.20 114.82 73.98 182.11 76.66 193.49 l2.34 9.04 -58.25 0 -58.25 0 -8.70 -9.04z"/>
    <path d="M1152.93 1417.06 c-109.13 -91.39 -165.04 -142.94 -160.35 -147.63 7.36 -7.36 103.78 -57.58 107.46 -56.24 4.35 1.67 76.33 87.04 103.11 121.85 l16.07 20.76 -17.74 41.85 c-9.71 23.10 -18.41 41.85 -19.42 41.85 -1.34 0 -14.39 -10.04 -29.12 -22.43z"/>
    <path d="M1424.43 1386.26 c-74.32 -15.06 -101.77 -22.09 -129.55 -32.81 -18.08 -7.03 -32.81 -14.73 -32.81 -17.07 0 -5.36 13.39 -31.80 48.54 -96.08 15.06 -27.45 42.85 -79.34 61.60 -114.49 19.08 -35.49 35.82 -63.61 37.49 -62.60 1.67 1 34.15 37.16 72.31 80.68 130.22 147.97 151.65 173.41 151.65 179.10 0 12.05 -133.91 61.26 -175.08 64.28 -11.38 1 -26.78 0.33 -34.15 -1z"/>
    <path d="M1218.55 1314.96 c-22.43 -30.46 -104.45 -125.87 -114.16 -132.90 -6.36 -4.69 -19.75 -15.40 -29.79 -23.77 -43.85 -37.16 -121.85 -101.10 -145.29 -119.18 -14.06 -10.71 -25.44 -20.76 -25.44 -22.09 0 -1.67 8.03 -2.01 17.74 -1 26.78 2.34 446.91 31.80 455.95 31.80 5.02 0 -2.01 15.06 -42.18 90.39 -86.03 160.69 -101.10 187.47 -105.12 187.47 -2.01 0 -7.36 -4.69 -11.72 -10.71z"/>
    <path d="M728.12 1308.60 c-92.06 -46.53 -155.67 -81.35 -155.67 -85.03 0 -2.34 2.01 -5.02 4.35 -6.03 2.01 -0.67 28.79 -19.42 59.25 -40.84 30.46 -21.76 82.35 -58.25 115.49 -81.35 33.14 -23.10 65.95 -46.20 72.98 -51.55 10.71 -8.70 12.39 -9.04 12.39 -3.68 0 3.35 -9.71 43.18 -21.42 89.05 -12.05 45.53 -28.12 107.79 -35.82 137.92 -11.05 42.85 -15.06 55.24 -19.42 55.24 -3.01 -0.33 -17.41 -6.36 -32.14 -13.73z"/>
    <path d="M793.39 1319.65 c0 -2.68 18.08 -73.31 55.57 -217.26 10.38 -41.18 20.76 -74.65 22.76 -74.65 2.01 0 22.76 15.40 45.86 34.48 148.64 120.85 156.67 127.88 153.32 130.89 -0.67 0.67 -37.49 18.41 -81.68 39.50 -192.82 92.73 -195.84 94.07 -195.84 87.04z"/>
    <path d="M1634.66 1279.47 c-12.39 -14.06 -52.22 -59.59 -88.04 -100.76 -35.82 -41.51 -75.99 -87.37 -89.38 -102.10 -15.40 -17.41 -22.76 -27.79 -20.09 -29.12 2.34 -1 35.82 -3.68 74.32 -6.03 38.83 -2.01 111.81 -7.03 162.36 -10.38 167.38 -12.05 153.99 -11.38 153.99 -5.69 0 3.01 -21.09 47.20 -46.87 98.42 -38.16 76.33 -50.88 98.42 -70.97 123.53 -26.11 32.47 -48.54 58.25 -50.88 58.25 -1 0 -12.05 -11.72 -24.44 -26.11z"/>
    <path d="M531.94 1169.34 c-9.04 -20.09 -20.76 -44.86 -25.44 -55.24 l-8.70 -19.42 12.05 -22.43 c78 -150.64 124.53 -237.68 127.88 -241.70 3.68 -3.68 11.05 1.34 45.86 31.80 22.43 20.09 59.25 51.89 81.68 70.64 22.09 18.75 48.54 41.18 58.25 50.55 l18.08 16.40 -25.11 17.41 c-13.73 9.37 -36.82 25.78 -51.55 36.49 -86.37 62.60 -211.91 151.31 -213.92 151.31 -1 0 -9.71 -16.07 -19.08 -35.82z"/>
    <path d="M299.62 1064.22 c-93.40 -2.68 -88.71 -2.34 -88.71 -6.36 0 -5.36 254.09 -197.51 269.49 -203.54 15.73 -6.03 126.21 -34.48 127.88 -32.81 1.34 1.34 -94.74 189.81 -116.83 228.98 l-9.71 17.41 -52.56 -0.67 c-28.79 -0.33 -87.04 -1.67 -129.55 -3.01z"/>
    <path d="M178.43 1040.45 c-11.38 -14.73 -141.61 -291.58 -141.61 -300.95 0 -2.01 2.68 -3.01 6.03 -2.01 20.42 6.03 199.52 55.57 245.05 67.96 30.46 8.37 69.63 19.42 87.04 24.77 17.41 5.36 38.16 11.38 46.20 13.39 7.70 2.01 14.06 5.02 14.06 6.36 0 1.67 -14.73 13.73 -32.47 27.12 -24.44 18.41 -182.45 137.92 -217.26 164.70 -2.34 1.67 -5.02 1 -7.03 -1.34z"/>
    <path d="M1277.13 1015.68 c-36.82 -2.68 -107.46 -7.70 -157.34 -11.38 -49.55 -3.68 -114.49 -8.37 -143.95 -10.04 -56.58 -4.02 -61.93 -4.69 -61.93 -9.37 0 -3.01 64.61 -50.88 175.75 -130.89 29.46 -21.09 93.40 -66.95 142.28 -101.77 48.88 -35.15 99.76 -71.64 113.15 -81.68 13.06 -10.04 25.78 -17.07 27.45 -16.07 2.01 1.34 3.35 18.41 3.35 39.84 0 37.16 7.70 229.65 11.72 294.26 l2.34 32.47 -23.10 -0.33 c-12.39 -0.33 -52.89 -2.68 -89.72 -5.02z"/>
    <path d="M1428.44 1019.03 c-1 -1 3.35 -13.39 10.04 -27.45 19.42 -41.85 39.84 -88.38 71.64 -161.36 16.40 -37.83 30.80 -68.96 32.47 -69.63 1.34 -0.33 20.09 15.40 41.18 35.15 48.54 45.53 149.98 138.93 186.13 171.40 15.06 13.73 26.78 26.11 26.11 27.45 -1 1.34 -12.72 3.35 -26.11 4.35 -52.56 4.35 -168.05 12.05 -228.31 15.40 -34.82 2.01 -74.32 4.02 -87.37 5.02 -13.06 0.67 -24.77 0.67 -25.78 -0.33z"/>
    <path d="M1782.63 943.37 c-31.47 -27.79 -90.05 -81.01 -130.56 -118.17 -40.51 -37.49 -78 -71.64 -83.69 -76.33 -6.36 -5.69 -8.70 -9.71 -6.70 -11.72 2.01 -1.67 25.11 -18.75 51.89 -37.83 26.78 -18.75 82.02 -58.92 122.86 -89.05 40.84 -30.13 74.65 -54.57 75.66 -54.57 1.67 0 71.64 93.40 80.68 107.46 4.02 6.70 7.36 31.80 13.73 103.78 11.05 125.20 10.71 128.55 -1.67 147.30 -16.40 24.77 -58.25 77.67 -61.93 79 -2.01 0.67 -29.12 -21.76 -60.26 -49.88z"/>
    <path d="M843.27 965.13 c-70.30 -58.25 -177.09 -151.98 -177.09 -155.33 0 -3.68 248.73 -59.92 264.13 -59.92 6.03 0 4.02 7.36 -23.43 88.04 -16.74 48.21 -33.81 98.09 -37.83 110.81 -4.02 12.72 -8.70 23.77 -10.71 24.44 -2.34 0.67 -9.04 -3.01 -15.06 -8.03z"/>
    <path d="M1411.37 943.70 c-8.03 -133.57 -11.72 -288.23 -7.03 -289.57 3.35 -1.34 71.31 49.88 102.10 76.66 l14.73 12.39 -11.05 24.44 c-6.03 13.06 -28.46 63.27 -49.55 111.14 -21.42 47.87 -40.51 89.05 -42.85 91.73 -3.68 3.68 -4.69 -1.34 -6.36 -26.78z"/>
    <path d="M893.82 959.44 c0 -5.69 71.97 -212.24 74.99 -215.25 6.70 -7.36 334.43 -92.73 347.82 -90.72 4.69 0.67 -9.04 12.39 -49.21 41.18 -30.80 22.09 -78.34 55.91 -105.12 75.32 -27.12 19.42 -65.61 47.20 -86.03 61.60 -20.09 14.73 -68.96 49.55 -108.13 78 -68.63 49.21 -74.32 52.89 -74.32 49.88z"/>
    <path d="M490.10 807.79 c1.67 -13.73 69.30 -291.92 73.98 -304.64 1.34 -3.68 59.92 31.80 232.66 141.27 28.46 18.08 67.29 42.52 86.37 54.57 18.75 11.72 34.15 22.76 34.15 23.77 0 1.34 -54.57 14.06 -121.19 28.46 -99.76 21.42 -275.85 62.94 -301.96 70.97 -5.69 2.01 -6.03 0.67 -4.02 -14.39z"/>
    <path d="M373.26 802.77 c-31.13 -9.04 -87.71 -24.77 -125.54 -34.82 -37.83 -10.38 -80.68 -22.09 -95.41 -26.45 -14.73 -4.35 -37.83 -11.05 -51.55 -15.06 -13.39 -4.02 -23.43 -8.37 -21.76 -10.04 1.67 -1.34 13.73 -6.36 26.45 -11.05 13.06 -4.69 64.28 -24.44 113.82 -44.19 49.88 -19.75 96.08 -37.83 103.11 -40.51 l12.39 -4.35 20.76 40.84 c59.59 118.51 79.34 159.68 77 160.69 -1.34 0.67 -27.79 -6.03 -59.25 -15.06z"/>
    <path d="M350.50 587.18 c-58.58 -118.84 -106.12 -218.27 -105.45 -220.61 0.67 -3.01 32.14 8.37 106.46 39.84 137.59 57.91 178.10 75.66 183.12 80.34 3.35 3.01 -3.68 35.82 -32.81 152.65 -20.09 82.02 -37.49 152.32 -38.50 156.67 -0.67 4.02 -2.68 7.36 -4.02 7.03 -1.34 0 -50.21 -97.08 -108.80 -215.92z"/>
    <path d="M1501.42 691.96 c-25.78 -20.09 -152.99 -116.16 -219.27 -165.37 -17.41 -12.72 -42.85 -30.46 -56.24 -39.50 -13.39 -9.04 -23.77 -17.74 -23.10 -19.42 0.67 -2.68 168.05 -66.62 330.41 -126.21 26.78 -9.71 62.60 -22.76 79.67 -29.12 17.41 -6.36 32.14 -10.71 33.14 -10.04 0.67 1 -3.68 18.75 -10.38 39.50 -13.06 42.52 -88.71 310.33 -97.42 344.47 -3.01 12.05 -6.70 22.76 -8.03 24.10 -1.34 1.34 -14.39 -7.03 -28.79 -18.41z"/>
    <path d="M1006.31 690.62 c5.02 -7.03 29.46 -38.16 53.90 -69.63 24.44 -31.13 58.25 -74.99 75.32 -96.75 17.07 -22.09 32.81 -40.51 34.82 -41.18 6.03 -2.01 173.41 118.17 180.10 129.22 1 1.34 -26.45 9.71 -60.93 18.08 -34.48 8.70 -112.82 28.46 -174.08 44.19 -61.60 15.73 -113.49 28.46 -115.16 28.46 -2.01 0 0.67 -5.69 6.03 -12.39z"/>
    <path d="M1561.35 697.65 c4.69 -15.06 111.81 -392.35 113.82 -400.38 1 -5.36 3.35 -9.37 4.69 -9.37 1.34 0 8.37 10.04 15.73 22.76 7.03 12.39 30.13 49.21 50.88 81.68 20.76 32.47 39.50 63.61 41.51 68.63 4.02 10.38 17.07 71.64 15.73 72.64 -0.67 0.67 -9.04 5.69 -18.75 11.38 -9.71 6.03 -62.60 43.52 -117.17 83.02 -54.57 39.84 -101.43 73.31 -104.11 74.32 -3.01 1 -4.02 -0.33 -2.34 -4.69z"/>
    <path d="M45.53 696.65 c-4.02 -6.36 153.99 -335.10 161.02 -335.10 6.03 0 118.84 228.98 114.49 231.99 -2.01 1.34 -167.72 65.28 -253.08 97.75 -11.38 4.35 -21.76 6.70 -22.43 5.36z"/>
    <path d="M882.11 667.19 c-22.09 -14.06 -95.74 -60.59 -164.04 -103.44 -67.96 -42.52 -123.86 -79.34 -123.86 -81.68 0 -4.35 -2.01 -3.68 83.69 -35.15 33.14 -12.39 72.64 -27.79 88.04 -34.15 15.73 -7.03 29.12 -10.71 30.46 -9.04 1.67 1.67 11.72 24.10 23.10 49.88 30.80 70.97 74.99 170.06 92.40 206.89 8.37 17.74 14.06 32.47 12.72 32.47 -1.34 0 -20.42 -11.72 -42.52 -25.78z"/>
    <path d="M940.36 657.48 c-52.56 -113.15 -120.18 -263.80 -120.18 -267.81 0 -9.04 277.19 -342.80 284.89 -342.80 1.34 0 1.67 2.68 1 6.03 -0.67 3.01 -7.36 35.15 -15.06 70.97 -7.36 35.82 -27.79 121.85 -44.86 190.82 -17.07 68.96 -44.19 180.44 -60.26 247.73 -16.07 67.29 -29.79 122.86 -30.46 123.53 -0.67 0.67 -7.36 -12.05 -15.06 -28.46z"/>
    <path d="M988.90 664.51 c14.73 -62.94 31.80 -134.91 59.25 -246.39 18.08 -74.99 33.14 -138.59 33.14 -141.61 0 -10.38 5.69 -5.36 9.71 8.70 2.34 7.70 17.07 47.87 32.47 89.05 15.40 41.18 28.12 77.33 28.12 80.68 0 3.01 -9.37 17.74 -20.76 32.81 -28.46 37.16 -130.22 167.38 -137.59 176.42 -5.69 6.70 -6.03 6.70 -4.35 0.33z"/>
    <path d="M510.52 444.57 c-32.47 -14.39 -185.79 -78.67 -242.04 -101.43 -18.75 -7.70 -35.15 -14.73 -36.15 -15.73 -0.67 -1 14.73 -13.73 34.48 -28.46 19.75 -14.73 82.02 -60.59 138.26 -101.77 143.28 -105.79 158.68 -116.50 161.69 -113.82 1.34 1.34 1 19.75 -1 40.84 -5.02 56.58 -12.39 165.37 -17.07 250.74 -2.34 41.51 -5.02 77 -6.03 79 -1.34 2.68 -12.05 -0.33 -32.14 -9.37z"/>
    <path d="M571.44 455.95 c-0.67 -1.34 0 -22.76 1.67 -47.54 1.67 -24.77 6.70 -101.43 11.05 -170.40 7.36 -112.48 9.37 -131.90 12.72 -127.21 20.09 26.11 183.12 264.46 183.12 267.48 0 2.01 -42.18 18.41 -186.46 72.31 -11.38 4.35 -21.42 6.70 -22.09 5.36z"/>
    <path d="M1143.22 352.51 c-16.07 -43.85 -33.48 -90.39 -38.50 -103.44 -8.37 -22.43 -8.70 -24.77 -4.69 -43.52 18.75 -87.37 45.19 -203.54 46.53 -204.88 3.01 -3.35 79.67 24.77 176.42 64.94 84.03 34.48 110.47 47.54 109.13 53.23 -1 4.35 -256.10 313.01 -258.44 313.01 -0.67 0 -14.39 -35.82 -30.46 -79.34z"/>
    <path d="M1211.85 430.17 c0 -2.01 114.16 -140.60 199.19 -242.04 25.11 -30.13 47.54 -55.24 49.88 -56.24 7.36 -2.68 197.18 127.55 195.17 133.91 -0.67 2.01 -19.08 10.04 -41.18 17.74 -65.95 23.43 -255.09 93.40 -352.17 130.22 -50.21 19.08 -50.88 19.08 -50.88 16.40z"/>
    <path d="M766.61 310.66 c-19.08 -28.12 -59.59 -86.70 -90.39 -129.89 -78.67 -111.14 -78.34 -110.81 -73.98 -113.49 6.70 -4.35 419.13 -60.93 480.05 -66.28 15.06 -1.34 22.43 -0.67 22.43 1.67 0 2.01 -1.67 4.69 -3.35 5.69 -5.02 3.01 -220.28 259.78 -269.15 320.71 -14.39 17.74 -27.12 32.47 -28.79 32.47 -1.34 0 -17.74 -23.10 -36.82 -50.88z"/>
  </g>
  <text x="630" y="425" font-family="'Barlow','Helvetica Neue',Helvetica,sans-serif" font-weight="700" font-size="350" letter-spacing="-8" fill="#FFFFFF">Cognivanz<tspan fill="#FFFFFF">.</tspan></text>
</svg>